<?xml version="1.0" standalone="no"?>
<!DOCTYPE svg PUBLIC "-//W3C//DTD SVG 20010904//EN"
 "http://www.w3.org/TR/2001/REC-SVG-20010904/DTD/svg10.dtd">
<svg version="1.0" xmlns="http://www.w3.org/2000/svg"
 width="298.000000pt" height="169.000000pt" viewBox="0 0 298.000000 169.000000"
 preserveAspectRatio="xMidYMid meet">

<g transform="translate(0.000000,169.000000) scale(0.100000,-0.100000)"
fill="#000000" stroke="none">
<path d="M1245 1680 c-17 -5 -46 -25 -65 -45 -30 -31 -35 -43 -38 -98 -3 -52
0 -67 20 -96 82 -120 272 -80 293 63 18 115 -97 210 -210 176z"/>
<path d="M1360 796 l0 -506 23 -5 c30 -7 167 -35 172 -35 2 0 -4 21 -12 48
-21 67 -21 179 0 219 20 37 63 63 105 63 93 0 241 -138 319 -297 l48 -100 95
-7 c52 -4 124 -10 159 -13 l63 -6 -373 439 c-205 241 -424 499 -486 572 l-113
133 0 -505z"/>
<path d="M894 904 l-331 -389 83 -28 84 -29 57 46 c161 126 264 96 281 -82 l7
-66 74 -18 c40 -11 75 -17 77 -15 2 2 3 221 2 487 l-3 482 -331 -388z"/>
<path d="M7 668 c-5 -16 78 -55 313 -149 96 -39 176 -72 178 -74 3 -3 -187
-232 -346 -417 -14 -17 -4 -18 194 -18 l209 0 2 57 c2 32 10 80 19 108 23 70
94 205 108 205 6 0 70 -18 141 -39 72 -21 149 -44 173 -50 23 -7 42 -17 42
-23 0 -21 -70 -157 -105 -202 -19 -26 -35 -48 -35 -51 0 -3 74 -5 165 -5 l165
0 0 111 0 112 33 -7 c17 -4 47 -10 65 -13 l32 -6 0 -98 0 -99 171 0 c134 0
169 3 162 13 -4 6 -27 41 -52 76 l-44 63 32 -7 c18 -4 112 -17 210 -29 98 -13
183 -26 189 -30 7 -4 12 -25 12 -47 l0 -39 206 0 206 0 -25 33 -25 33 272 -3
c253 -3 267 -2 209 11 -88 20 -198 81 -265 147 -32 31 -58 53 -58 48 0 -22 41
-113 65 -145 l26 -34 -118 0 c-243 0 -627 37 -935 91 -495 85 -1023 245 -1495
453 -92 41 -90 40 -96 24z"/>
</g>
</svg>
