<?xml version="1.0" standalone="no"?>
<!DOCTYPE svg PUBLIC "-//W3C//DTD SVG 20010904//EN"
 "http://www.w3.org/TR/2001/REC-SVG-20010904/DTD/svg10.dtd">
<svg version="1.0" xmlns="http://www.w3.org/2000/svg"
 width="1218.000000pt" height="403.000000pt" viewBox="0 0 1218.000000 403.000000"
 preserveAspectRatio="xMidYMid meet">

<g transform="translate(0.000000,403.000000) scale(0.100000,-0.100000)"
fill="#000000" stroke="none">
<path d="M11375 3378 c-37 -20 -55 -52 -55 -96 0 -110 148 -144 199 -45 43 84
-61 187 -144 141z"/>
<path d="M11111 3116 c-31 -17 -50 -53 -51 -94 0 -46 54 -102 99 -102 99 0
150 113 82 181 -33 32 -87 39 -130 15z"/>
<path d="M4975 2939 c-253 -24 -486 -155 -653 -367 -208 -265 -247 -665 -93
-970 127 -253 369 -439 646 -497 106 -22 294 -22 400 0 294 62 560 279 654
535 37 102 51 184 58 343 l6 157 -451 0 -452 0 0 -125 0 -125 310 0 310 0 0
-27 c0 -52 -30 -156 -63 -217 -48 -91 -149 -186 -249 -235 -116 -57 -191 -74
-323 -74 -183 0 -320 52 -443 168 -159 148 -231 328 -219 550 14 278 195 523
448 606 64 21 92 24 214 24 126 0 147 -3 212 -27 75 -27 193 -101 299 -188
l61 -50 89 97 88 96 -66 62 c-214 203 -481 293 -783 264z"/>
<path d="M640 2015 l0 -895 135 0 135 0 0 895 0 895 -135 0 -135 0 0 -895z"/>
<path d="M3287 2303 c-4 -649 -5 -661 -56 -766 -34 -69 -104 -142 -168 -173
-154 -76 -371 -21 -467 119 -49 72 -67 128 -73 227 -12 187 65 328 217 399 48
22 69 26 155 26 88 0 109 -4 170 -29 39 -16 87 -40 107 -53 21 -12 40 -23 43
-23 3 0 5 60 5 134 l0 134 -67 27 c-190 76 -390 72 -554 -11 -92 -46 -210
-161 -257 -251 -120 -230 -85 -551 82 -756 176 -214 513 -280 776 -150 105 51
206 154 259 266 76 156 74 136 78 850 l4 637 -125 0 -124 0 -5 -607z"/>
<path d="M9484 2880 c-35 -14 -64 -59 -64 -100 0 -110 149 -145 197 -46 41 87
-45 182 -133 146z"/>
<path d="M9822 2875 c-39 -17 -66 -73 -57 -115 8 -37 49 -77 85 -85 42 -9 95
19 115 62 43 91 -49 180 -143 138z"/>
<path d="M10160 2868 c-71 -48 -62 -152 16 -184 103 -43 191 83 117 166 -39
43 -87 49 -133 18z"/>
<path d="M10524 2880 c-35 -14 -64 -59 -64 -100 0 -74 75 -125 142 -97 42 18
58 37 64 79 8 46 -10 84 -48 108 -35 21 -60 24 -94 10z"/>
<path d="M10872 2875 c-39 -17 -66 -73 -57 -115 7 -34 51 -75 88 -84 42 -10
96 20 114 63 39 91 -53 177 -145 136z"/>
<path d="M3753 2741 c-88 -55 -84 -209 6 -256 36 -18 116 -20 151 -2 43 22 70
74 70 134 0 49 -4 58 -39 95 -35 38 -43 42 -97 45 -46 3 -66 0 -91 -16z"/>
<path d="M10530 2527 c-25 -9 -40 -23 -54 -51 -17 -36 -18 -43 -5 -80 19 -56
73 -84 129 -67 75 22 99 117 44 171 -36 34 -68 42 -114 27z"/>
<path d="M10893 2533 c-12 -2 -33 -16 -47 -29 -79 -80 -2 -207 106 -175 47 15
73 52 72 104 -2 63 -65 112 -131 100z"/>
<path d="M7432 2418 c-31 -31 -4 -88 42 -88 20 0 46 28 46 50 0 40 -60 66 -88
38z m68 -13 c26 -32 -13 -81 -47 -59 -35 22 -23 74 17 74 10 0 23 -7 30 -15z"/>
<path d="M7451 2378 c2 -31 2 -31 6 -5 2 15 8 27 13 27 4 0 6 -8 3 -19 -3 -10
-1 -21 5 -25 5 -3 9 8 10 24 0 23 -4 30 -19 30 -15 0 -19 -7 -18 -32z"/>
<path d="M1454 2365 c-183 -40 -330 -184 -379 -372 -12 -46 -15 -136 -15 -465
l0 -408 125 0 125 0 0 393 c0 438 1 450 66 526 77 90 200 125 301 86 63 -24
135 -94 164 -158 24 -51 24 -56 27 -449 l3 -398 125 0 124 0 0 388 c0 232 -4
412 -11 448 -6 32 -28 95 -49 140 -104 215 -350 325 -606 269z"/>
<path d="M6635 2365 c-236 -51 -432 -246 -481 -477 -24 -110 -15 -281 19 -377
63 -179 207 -320 399 -389 66 -24 86 -26 208 -26 108 1 148 5 197 21 211 70
376 242 428 448 20 79 20 259 -1 339 -29 115 -71 184 -168 281 -71 70 -108 99
-166 127 -133 64 -294 84 -435 53z m311 -260 c77 -38 139 -101 177 -183 30
-64 32 -73 32 -187 0 -114 -2 -123 -32 -187 -39 -82 -100 -145 -179 -184 -54
-26 -68 -29 -164 -29 -88 0 -113 4 -154 23 -158 72 -233 208 -224 407 5 116
30 184 94 254 78 87 168 123 301 117 76 -3 102 -8 149 -31z"/>
<path d="M3710 1735 l0 -615 125 0 125 0 0 615 0 615 -125 0 -125 0 0 -615z"/>
<path d="M10271 2276 c-58 -32 -69 -119 -22 -167 49 -48 142 -34 169 26 22 47
15 84 -22 121 -37 37 -81 44 -125 20z"/>
<path d="M10864 2171 c-36 -22 -58 -75 -48 -115 17 -70 115 -99 172 -51 55 46
46 137 -17 169 -40 21 -69 20 -107 -3z"/>
<path d="M10043 2039 c-88 -25 -93 -155 -8 -196 85 -41 177 46 140 133 -22 53
-76 79 -132 63z"/>
<path d="M10851 1814 c-75 -63 -30 -184 69 -184 45 0 78 23 97 67 42 101 -82
188 -166 117z"/>
<path d="M9781 1786 c-58 -32 -69 -119 -22 -167 49 -48 142 -34 169 26 22 47
15 84 -22 121 -37 37 -81 44 -125 20z"/>
<path d="M8852 1548 c-71 -19 -93 -121 -38 -177 21 -20 36 -26 72 -26 39 0 50
5 75 33 73 82 -1 199 -109 170z"/>
<path d="M9203 1548 c-74 -19 -97 -110 -44 -170 25 -28 36 -33 76 -33 40 0 51
5 76 33 35 39 38 82 9 130 -11 17 -21 32 -22 32 -2 0 -17 4 -33 8 -17 5 -44 5
-62 0z"/>
<path d="M9552 1548 c-36 -10 -72 -57 -72 -96 0 -55 56 -112 110 -112 56 0 99
47 100 107 0 73 -64 121 -138 101z"/>
<path d="M10893 1493 c-12 -2 -33 -16 -47 -29 -79 -80 -2 -207 106 -175 47 15
73 52 72 104 -2 63 -65 112 -131 100z"/>
<path d="M9519 1172 c-29 -26 -34 -37 -34 -77 0 -40 5 -51 33 -76 71 -64 172
-20 172 75 0 62 -30 96 -91 103 -41 5 -50 2 -80 -25z"/>
<path d="M9517 826 c-80 -74 -7 -208 99 -182 75 19 101 121 45 177 -39 39
-105 41 -144 5z"/>
</g>
</svg>
