<?xml version="1.0" standalone="no"?>
<!DOCTYPE svg PUBLIC "-//W3C//DTD SVG 20010904//EN"
 "http://www.w3.org/TR/2001/REC-SVG-20010904/DTD/svg10.dtd">
<svg version="1.0" xmlns="http://www.w3.org/2000/svg"
 width="5000.000000pt" height="1293.000000pt" viewBox="0 0 5000.000000 1293.000000"
 preserveAspectRatio="xMidYMid meet">

<g transform="translate(0.000000,1293.000000) scale(0.100000,-0.100000)"
fill="#000000" stroke="none">
<path d="M19003 12920 c-44 -5 -87 -16 -108 -29 -30 -18 -542 -372 -1211 -838
-253 -177 -380 -272 -363 -273 11 0 134 42 162 56 15 8 65 39 110 68 290 186
737 449 737 432 0 -7 -210 -170 -366 -286 -524 -385 -1474 -1102 -1944 -1466
-973 -755 -1101 -850 -1419 -1059 -454 -297 -995 -594 -1449 -794 -157 -69
-167 -70 -275 -35 l-47 16 -48 -35 c-26 -19 -426 -287 -890 -596 l-843 -562
32 -42 c18 -23 36 -47 41 -53 9 -12 -229 -236 -462 -435 -295 -252 -726 -586
-955 -741 -242 -164 -332 -216 -1299 -756 -155 -86 -499 -288 -616 -362 -41
-26 -196 -123 -345 -215 -148 -93 -342 -214 -430 -270 -378 -240 -1090 -673
-1240 -754 l-60 -33 53 51 c29 28 207 167 395 309 188 142 403 305 478 363 75
57 204 153 285 214 82 60 253 189 379 286 127 96 280 211 340 254 133 94 199
151 164 140 -13 -4 -96 -45 -184 -91 -451 -237 -910 -459 -1019 -493 -74 -23
-628 -140 -953 -201 -899 -169 -1879 -290 -2863 -354 -633 -42 -1094 -56
-1880 -57 -603 -1 -770 -6 -710 -22 14 -4 331 -50 705 -102 1217 -171 1707
-250 2293 -370 981 -200 1842 -465 2597 -800 213 -94 725 -352 955 -480 415
-232 494 -284 1300 -869 704 -511 1121 -780 1572 -1016 622 -325 1340 -522
2178 -597 243 -21 826 -24 1110 -5 538 37 1062 105 1510 196 l165 34 -327 1
c-666 2 -1380 51 -1838 127 -625 103 -1203 282 -1705 529 -309 152 -527 297
-691 460 -101 100 -158 179 -213 294 -35 74 -36 79 -35 191 0 127 15 180 85
296 135 224 556 474 1101 653 53 18 99 39 102 46 23 62 60 550 91 1210 19 409
32 621 51 815 62 654 229 1341 495 2038 33 86 63 160 67 163 4 4 45 9 91 13
l84 6 -6 -368 c-8 -455 -30 -779 -83 -1202 -53 -433 -96 -653 -209 -1070 -83
-308 -167 -647 -228 -920 -66 -295 -130 -610 -125 -616 5 -4 165 36 363 91
260 72 514 125 773 161 l122 17 0 53 c0 132 -117 650 -226 996 -93 299 -120
393 -155 553 -105 481 -147 1059 -129 1785 5 201 12 398 16 438 l6 72 103 0
103 0 6 -35 c4 -19 39 -151 77 -293 216 -792 335 -1422 379 -2002 5 -74 17
-337 25 -585 15 -451 24 -607 46 -807 l12 -108 71 0 c39 0 190 14 336 30 439
50 676 70 853 70 104 0 167 4 167 10 0 6 -28 10 -64 10 -35 0 -84 3 -109 6
-45 6 -47 8 -67 60 -26 70 -88 194 -160 319 -32 55 -81 147 -110 205 -65 129
-134 245 -286 477 -169 257 -241 381 -363 623 -235 466 -411 922 -565 1467
-70 247 -136 540 -136 609 0 9 159 49 165 41 18 -24 309 -476 365 -567 384
-625 637 -1177 947 -2070 139 -400 345 -944 418 -1103 l27 -57 91 5 c312 19
551 27 1019 32 l527 6 -60 71 c-58 67 -888 905 -1166 1176 -70 69 -188 179
-261 244 -387 344 -728 715 -1043 1136 -236 315 -341 474 -667 1008 -24 40
-53 95 -63 123 l-19 49 37 60 c21 33 42 60 47 60 13 0 184 -131 281 -214 115
-100 236 -216 525 -506 358 -357 564 -584 783 -860 112 -142 155 -200 480
-655 392 -548 634 -864 1032 -1350 72 -88 164 -201 203 -251 l72 -92 67 -6
c108 -9 751 -28 833 -24 l75 3 -130 54 c-511 212 -746 392 -849 650 -26 67
-30 91 -34 196 -3 103 0 134 22 218 31 120 84 242 166 383 34 58 60 107 58
108 -9 7 -344 205 -513 303 -269 156 -489 279 -723 404 -786 421 -1413 890
-2065 1546 l-158 160 38 61 c21 34 41 62 45 62 15 0 318 -144 488 -232 424
-220 849 -474 1265 -756 246 -166 406 -288 610 -463 225 -193 564 -470 760
-621 165 -126 384 -282 389 -277 5 5 187 285 282 432 38 59 124 191 191 292
102 153 119 184 105 190 -99 41 -668 202 -1177 335 -500 130 -712 194 -1025
310 -443 165 -926 388 -1357 628 -189 106 -412 237 -427 252 -5 5 -1 38 9 79
l17 71 37 -6 c404 -70 846 -191 1514 -414 677 -226 774 -266 1417 -573 184
-87 415 -195 513 -238 179 -80 619 -261 622 -257 1 2 28 46 60 98 33 52 147
232 255 400 291 453 282 437 278 473 l-3 32 -175 12 c-96 7 -245 17 -330 22
-85 6 -429 22 -765 36 -1016 42 -1244 59 -1700 125 -565 82 -1310 262 -1619
390 l-74 31 17 67 17 67 200 3 c109 2 361 -2 558 -8 830 -25 1502 -101 2256
-255 1032 -211 1521 -295 1713 -295 l83 0 79 128 c43 70 167 262 274 427 335
517 431 674 431 706 0 16 -4 29 -8 29 -46 0 -330 -44 -707 -110 -252 -44 -635
-110 -850 -146 -367 -61 -591 -101 -1090 -194 -973 -182 -1980 -246 -2860
-182 l-89 7 2 50 c5 96 9 102 65 123 162 61 648 167 1108 242 580 94 1024 137
1729 165 212 8 403 17 425 20 22 3 204 14 405 25 434 24 507 28 1240 80 311
22 606 42 656 46 50 3 96 9 101 13 9 5 232 350 918 1416 78 121 314 488 525
815 211 327 487 757 615 955 127 198 277 430 332 515 107 167 173 280 173 298
0 14 -2301 15 -2427 2z m367 -2150 c0 -15 -80 -64 -148 -91 -110 -44 -460
-188 -687 -284 -343 -145 -682 -287 -1040 -435 -744 -308 -873 -365 -1212
-533 -687 -340 -1342 -587 -2068 -781 -401 -107 -982 -226 -1105 -226 -31 0
-38 14 -55 111 l-7 36 84 46 c137 75 591 299 768 380 590 268 1132 460 1770
628 753 198 1336 375 2510 764 338 112 712 235 830 274 118 39 244 82 280 95
76 29 80 29 80 16z m-8080 -3477 c14 -9 35 -25 47 -36 l23 -20 -32 -56 c-29
-51 -240 -369 -377 -566 -261 -378 -674 -886 -931 -1146 -121 -122 -858 -842
-1090 -1065 -99 -96 -295 -294 -325 -330 -5 -6 -102 -106 -214 -220 -651 -664
-693 -708 -886 -929 -138 -158 -262 -285 -278 -285 -13 0 108 161 573 760 190
245 408 528 485 630 76 102 185 244 240 315 147 188 404 532 685 916 338 462
451 605 672 850 314 348 616 627 1171 1079 159 129 183 140 237 103z m284
-124 c32 -7 60 -18 63 -25 12 -32 -143 -546 -262 -869 -212 -575 -438 -1037
-861 -1762 -200 -343 -315 -545 -454 -798 -42 -77 -144 -264 -227 -415 -278
-507 -554 -1023 -695 -1295 -76 -148 -150 -283 -164 -300 l-24 -30 19 55 c43
125 122 328 305 789 417 1046 613 1545 1036 2646 194 503 324 759 650 1280
244 390 511 754 544 742 6 -3 37 -10 70 -18z"/>
<path d="M35389 5743 c-29 -4 -64 -50 -149 -200 l-48 -83 585 0 c565 0 586 1
612 20 37 26 99 108 149 198 l41 72 -582 -1 c-320 -1 -594 -4 -608 -6z"/>
<path d="M38014 5739 c-211 -16 -430 -103 -599 -238 -30 -24 -89 -84 -131
-132 l-77 -89 -158 0 -158 0 -49 -82 c-45 -75 -122 -220 -122 -231 0 -2 68 -7
152 -11 84 -4 154 -8 155 -10 2 -2 -103 -172 -233 -377 -130 -206 -307 -484
-392 -619 -85 -134 -200 -314 -255 -400 -110 -170 -173 -287 -162 -298 3 -4
285 -9 625 -10 l619 -4 40 39 c24 23 141 204 296 458 142 231 365 595 498 808
l240 388 1133 -3 c623 -2 1135 -6 1139 -9 3 -4 -9 -36 -26 -72 l-33 -66 -790
-4 c-837 -4 -852 -5 -951 -53 -129 -61 -329 -325 -351 -462 -13 -83 48 -178
134 -206 139 -46 165 -48 727 -56 559 -8 635 -14 635 -49 -1 -69 -68 -213
-150 -323 -59 -77 -110 -107 -199 -115 -63 -6 -228 14 -237 28 -3 5 22 66 56
135 33 70 57 130 54 133 -3 3 -279 6 -613 6 -568 0 -609 -1 -634 -18 -27 -17
-123 -157 -187 -271 -80 -141 -4 -250 190 -276 105 -13 2380 -13 2488 0 217
28 283 87 495 447 112 191 152 271 163 329 16 85 -65 185 -179 223 -143 47
-222 53 -787 61 -294 4 -545 11 -557 15 -53 17 -8 103 76 149 76 41 155 45
891 46 349 0 668 5 708 9 123 15 177 60 291 246 27 44 67 100 89 125 l40 45
204 3 205 4 31 51 c18 29 61 99 96 157 l65 105 -205 10 -204 10 23 35 c76 112
147 244 142 261 -10 31 -94 97 -150 118 -30 11 -82 25 -117 30 -73 12 -3851
21 -3994 10z m2666 -269 c41 -6 98 -15 127 -21 l52 -12 -40 -78 -39 -79 -1143
0 -1142 1 55 49 c64 58 164 114 241 134 45 12 199 15 934 15 508 0 912 -4 955
-9z"/>
<path d="M24125 5269 c-113 -12 -248 -53 -334 -102 -103 -59 -197 -163 -294
-326 -42 -71 -77 -132 -77 -135 0 -3 298 -5 662 -4 l662 3 73 97 c94 126 125
144 253 153 110 8 177 -4 233 -41 l38 -25 -27 -47 c-93 -163 -125 -211 -177
-268 -104 -113 -179 -133 -512 -134 -88 0 -198 -3 -243 -7 -83 -6 -84 -6 -107
-43 -30 -48 -125 -219 -125 -225 0 -3 84 -5 188 -5 285 0 377 -15 433 -71 39
-39 25 -88 -84 -279 -85 -147 -124 -190 -202 -219 -106 -40 -307 -37 -372 6
-21 14 -24 22 -20 53 3 21 23 76 45 124 l41 86 -253 0 c-139 0 -435 -3 -658
-7 l-405 -6 -57 -89 c-74 -115 -134 -241 -142 -298 -7 -56 22 -105 81 -135 39
-20 60 -20 1400 -20 1291 0 1363 1 1419 18 98 30 169 72 232 136 63 64 240
330 311 469 49 95 53 131 25 232 l-19 64 79 46 c183 106 248 182 383 455 148
299 155 324 111 400 -46 78 -156 128 -318 145 -114 12 -2129 11 -2243 -1z"/>
<path d="M33213 5173 c-63 -96 -138 -230 -131 -235 2 -1 382 -4 845 -7 463 -3
844 -9 848 -12 3 -4 -9 -36 -27 -73 l-32 -66 -751 0 c-777 0 -882 -4 -964 -41
-80 -35 -106 -65 -247 -281 l-139 -213 -3 -91 -4 -90 54 -12 c178 -40 257 -45
813 -51 504 -5 553 -8 583 -24 41 -22 56 -55 48 -99 -12 -67 -161 -300 -213
-334 -39 -25 -153 -36 -304 -28 l-137 6 13 47 c15 55 57 166 79 208 l15 30
-127 6 c-70 4 -329 7 -577 7 -409 0 -453 -2 -484 -18 -25 -13 -55 -52 -119
-152 -182 -289 -182 -288 -133 -378 l30 -53 -19 -42 c-23 -52 -50 -152 -50
-185 l0 -23 448 3 c395 3 451 5 477 20 63 34 124 106 174 205 l21 42 863 3
c851 3 863 3 924 24 84 29 154 76 207 138 45 52 225 347 296 484 44 84 60 176
43 241 -8 31 -19 40 -93 77 -188 95 -251 103 -791 104 -212 0 -448 3 -523 7
l-137 6 6 26 c11 47 59 95 130 131 l69 35 771 5 770 5 56 26 c64 30 98 68 189
214 35 55 78 119 97 143 l34 42 112 0 112 0 56 83 c31 45 75 116 98 158 l41
76 -392 6 c-215 4 -945 7 -1623 7 l-1231 0 -71 -107z"/>
<path d="M19131 5224 c-41 -44 -181 -250 -181 -266 0 -4 77 -8 170 -8 94 0
170 -3 170 -7 0 -12 -157 -307 -265 -498 -376 -663 -415 -742 -415 -845 0 -87
49 -165 136 -216 89 -52 112 -54 1004 -54 750 -1 969 -6 987 -23 9 -10 -16
-151 -38 -215 -10 -30 -19 -57 -19 -59 0 -2 300 -2 666 -1 l665 3 68 145 c37
80 76 169 85 198 17 51 17 54 -2 90 -13 25 -34 45 -68 62 l-48 25 -946 5
c-694 4 -952 8 -971 17 -15 6 -34 22 -43 35 -21 30 -20 119 2 183 9 28 114
219 233 425 119 206 262 457 319 558 l104 182 293 0 c161 0 293 -3 293 -8 0
-14 -132 -242 -271 -467 -75 -121 -156 -254 -180 -295 -24 -41 -64 -96 -89
-121 -42 -44 -51 -48 -145 -69 -120 -27 -141 -43 -196 -152 l-39 -78 682 -2
c376 -1 701 0 723 1 157 9 328 124 447 301 51 77 358 577 459 748 l84 142 126
0 c69 0 153 3 185 6 l59 6 37 62 c37 60 89 170 102 214 l7 22 -2074 0 -2074 0
-42 -46z"/>
<path d="M27320 5263 l-85 -4 -24 -42 c-74 -134 -123 -229 -119 -233 3 -2 55
-7 117 -11 61 -3 114 -9 116 -13 9 -15 -126 -246 -275 -472 -30 -45 -36 -46
-302 -55 l-206 -6 -45 -81 c-25 -45 -56 -104 -70 -132 l-26 -51 177 -7 c215
-8 224 -9 216 -45 -11 -44 -79 -180 -147 -291 -202 -329 -327 -547 -327 -570
0 -7 207 -10 650 -10 l650 0 36 40 c67 74 92 113 244 385 62 110 309 525 680
1145 102 169 78 157 308 167 l153 6 42 61 c23 34 63 95 89 136 l47 75 -107 6
c-108 7 -1635 8 -1792 2z"/>
<path d="M30051 5261 l-43 -6 -78 -137 -78 -137 77 -6 c120 -9 181 -16 181
-20 0 -8 -273 -369 -308 -408 -83 -91 -144 -105 -519 -114 l-261 -6 -45 -76
c-25 -42 -57 -102 -71 -133 l-25 -58 69 0 c71 0 154 -14 180 -30 12 -8 10 -19
-18 -76 -19 -37 -62 -113 -97 -168 -136 -218 -155 -262 -155 -361 0 -139 52
-205 177 -225 30 -5 403 -10 828 -11 633 -1 778 1 801 12 22 11 42 40 81 119
29 58 53 111 53 118 0 9 -52 12 -222 13 -123 1 -252 4 -288 8 l-65 6 -3 48
c-4 61 7 80 188 336 l143 201 51 0 c61 0 152 22 221 54 107 49 181 133 400
453 75 111 153 221 172 243 59 68 79 74 242 76 l144 1 56 60 c31 33 79 96 107
140 l51 80 -105 7 c-130 8 -1781 5 -1841 -3z"/>
<path d="M43417 5211 c-24 -32 -62 -94 -85 -138 l-41 -79 22 -27 c22 -27 23
-27 80 -17 35 7 162 10 325 8 256 -3 269 -4 315 -26 39 -20 47 -29 47 -50 -1
-65 -70 -164 -144 -207 -86 -49 -87 -49 -796 -50 l-665 0 -47 -23 c-72 -36
-137 -113 -223 -266 -83 -148 -115 -231 -115 -301 0 -49 21 -114 49 -154 27
-37 140 -96 238 -123 78 -22 80 -22 1353 -28 l1275 -5 56 -23 c96 -39 97 -42
40 -158 -28 -54 -74 -142 -104 -195 l-54 -96 66 -7 c36 -3 322 -6 635 -6 l569
0 32 34 c17 18 231 362 475 762 244 401 462 754 484 784 101 138 107 140 439
140 l267 0 0 -28 c0 -75 -48 -196 -120 -302 -21 -31 -91 -148 -155 -260 -65
-113 -192 -331 -283 -485 -245 -417 -364 -627 -357 -634 4 -3 292 -6 641 -6
621 0 634 0 652 20 10 11 74 112 142 225 174 289 698 1152 784 1290 65 105 75
117 127 143 56 28 59 29 316 53 45 5 53 9 63 34 6 15 40 77 76 136 35 59 61
110 58 113 -3 3 -1443 7 -3200 9 l-3194 2 -43 -59z m2450 -310 c-3 -42 -17
-83 -45 -138 -67 -131 -339 -596 -372 -636 -40 -48 -109 -83 -191 -97 -44 -7
-303 -10 -814 -8 l-750 3 -41 22 c-50 27 -90 72 -99 112 -15 70 42 168 113
193 29 9 167 12 602 11 316 -1 602 2 650 8 128 14 212 59 293 154 34 40 91
120 127 179 36 58 86 140 112 181 l48 75 186 0 187 0 -6 -59z"/>
<path d="M18552 1951 c-38 -7 -123 -73 -195 -151 -43 -48 -1103 -1141 -1468
-1515 -59 -60 -133 -141 -164 -180 -50 -61 -55 -70 -38 -76 10 -4 333 -8 718
-8 l700 -1 50 24 c31 15 87 60 150 123 55 54 118 108 140 118 37 19 67 20 413
23 204 1 372 1 372 -2 0 -2 -18 -64 -41 -136 -22 -73 -37 -135 -34 -139 4 -3
354 -7 778 -9 605 -2 777 1 796 10 18 10 32 35 52 93 417 1221 613 1814 604
1823 -8 9 -2788 12 -2833 3z m1188 -465 c-17 -48 -78 -199 -135 -334 -57 -136
-112 -269 -122 -297 l-19 -50 -64 -8 c-73 -9 -418 -3 -428 8 -4 4 47 59 113
123 259 252 679 651 682 648 2 -2 -10 -42 -27 -90z"/>
<path d="M30594 1942 c-32 -15 -52 -38 -94 -103 -29 -46 -170 -264 -313 -484
-406 -624 -519 -801 -689 -1075 l-157 -255 877 -3 877 -3 27 32 c68 80 1203
1887 1193 1898 -4 3 -383 7 -843 9 -805 3 -839 2 -878 -16z"/>
<path d="M32924 1946 c-21 -10 -48 -39 -79 -88 -70 -109 -656 -1064 -1002
-1631 -60 -99 -103 -181 -103 -197 0 -7 232 -10 723 -10 l722 0 191 288 c105
158 222 335 259 394 36 60 70 108 74 108 4 0 54 -71 110 -157 56 -87 171 -264
256 -393 l153 -235 750 -3 750 -2 138 217 c76 120 271 423 433 673 477 737
663 1032 656 1038 -12 12 -1438 15 -1481 3 -45 -13 -37 -2 -252 -351 -79 -129
-167 -267 -195 -307 l-50 -73 -62 93 c-34 50 -135 212 -224 359 -89 146 -170
270 -179 275 -9 4 -363 9 -787 10 -637 2 -775 0 -801 -11z"/>
<path d="M37653 1953 l-41 -4 -185 -282 c-165 -253 -588 -911 -862 -1342 -55
-88 -118 -190 -138 -227 l-37 -66 113 -7 c61 -3 904 -5 1872 -3 l1760 4 79 22
c200 58 374 174 494 330 83 108 751 1229 769 1291 48 166 -96 252 -468 281
-125 9 -3253 12 -3356 3z m1701 -601 c48 -16 52 -19 60 -60 7 -32 5 -58 -8
-104 -22 -79 -231 -481 -291 -558 -53 -69 -149 -141 -218 -164 -61 -21 -202
-31 -291 -22 -79 9 -79 1 -6 146 45 90 307 568 391 712 39 66 40 67 87 71 81
8 222 -3 276 -21z"/>
<path d="M42325 1942 c-41 -25 -62 -55 -209 -291 -70 -112 -268 -420 -440
-685 -172 -264 -346 -535 -388 -601 -113 -180 -208 -335 -208 -340 0 -3 396
-5 879 -5 l879 0 30 38 c17 21 102 150 190 287 87 138 205 322 262 410 57 88
158 248 225 355 67 107 185 292 262 410 155 237 259 417 248 428 -4 4 -388 8
-853 10 -816 3 -848 2 -877 -16z"/>
<path d="M45173 1944 c-35 -13 -193 -168 -933 -914 -833 -840 -937 -947 -961
-992 -9 -17 29 -18 742 -18 l751 0 115 115 c170 171 156 165 430 172 126 3
299 2 385 -2 l157 -7 -48 -137 -48 -138 800 -7 c621 -5 802 -4 808 5 11 19
499 1485 572 1720 l64 206 -90 7 c-50 3 -678 6 -1396 5 -1129 0 -1312 -3
-1348 -15z m1076 -750 c-89 -208 -165 -382 -169 -387 -3 -4 -116 -6 -250 -5
l-244 3 280 270 c268 259 536 507 542 501 1 -2 -70 -174 -159 -382z"/>
<path d="M22527 1943 l-227 -3 -38 -61 c-52 -85 -243 -384 -407 -639 -76 -118
-196 -305 -265 -415 -70 -110 -179 -281 -242 -380 -115 -181 -231 -375 -243
-407 -7 -17 39 -18 872 -18 l879 0 311 483 c449 698 906 1427 899 1434 -6 7
-1199 12 -1539 6z"/>
<path d="M24940 1942 l-255 -3 -69 -112 c-81 -131 -282 -446 -633 -992 -265
-414 -493 -785 -493 -804 0 -8 219 -11 829 -11 455 0 848 3 872 6 53 7 57 13
242 321 141 235 215 345 227 338 4 -3 74 -96 154 -208 177 -246 322 -427 356
-444 19 -10 190 -13 771 -13 410 0 793 3 852 6 l105 7 -79 92 c-43 51 -156
168 -250 259 -100 97 -165 168 -157 170 7 2 47 9 88 16 161 26 260 74 362 174
65 64 106 121 238 336 62 102 130 210 151 240 120 180 167 344 126 442 -19 45
-84 111 -134 136 -106 54 -51 52 -1609 50 -791 -2 -1554 -4 -1694 -6z m1525
-593 c48 -24 50 -27 53 -73 6 -94 -86 -220 -200 -272 -62 -28 -66 -29 -270
-32 -148 -3 -208 -1 -208 7 0 7 21 51 46 99 26 48 71 133 100 189 l55 102 52
4 c28 2 113 4 187 3 125 -1 140 -3 185 -27z"/>
</g>
</svg>
