<?xml version="1.0" standalone="no"?>
<!DOCTYPE svg PUBLIC "-//W3C//DTD SVG 20010904//EN"
 "http://www.w3.org/TR/2001/REC-SVG-20010904/DTD/svg10.dtd">
<svg version="1.0" xmlns="http://www.w3.org/2000/svg"
 width="1024.000000pt" height="576.000000pt" viewBox="0 0 1024.000000 576.000000"
 preserveAspectRatio="xMidYMid meet">

<g transform="translate(0.000000,576.000000) scale(0.100000,-0.100000)"
fill="#000000" stroke="none">
<path d="M4890 4720 c-544 -64 -1044 -371 -1348 -825 -173 -258 -272 -537
-308 -866 -15 -133 -15 -173 -5 -292 25 -286 81 -489 198 -722 318 -634 969
-1034 1683 -1035 712 0 1366 407 1685 1048 298 601 249 1315 -129 1876 -286
424 -729 710 -1241 802 -105 18 -424 27 -535 14z m-520 -1227 c16 -27 30 -61
30 -76 0 -16 -18 -72 -40 -125 -41 -102 -104 -322 -91 -322 4 0 54 7 111 15
122 19 160 11 160 -34 0 -14 -30 -84 -65 -155 -36 -71 -65 -133 -65 -137 0
-19 21 -7 55 28 67 71 139 191 184 306 19 49 105 63 126 21 10 -21 11 -21 45
7 39 33 78 37 108 12 54 -47 26 -90 -77 -119 -100 -29 -197 -159 -224 -301 -9
-50 -16 -63 -40 -76 -16 -10 -37 -17 -47 -17 -22 0 -50 36 -50 63 0 14 -12 6
-45 -31 -49 -54 -92 -77 -128 -68 -27 6 -47 43 -47 85 0 39 34 148 75 237 37
82 38 80 -48 63 -68 -14 -67 -13 -92 -212 -25 -202 -24 -197 -50 -209 -38 -17
-74 -2 -91 37 -21 52 -16 128 21 302 l7 32 -72 -20 c-40 -11 -81 -24 -91 -30
-31 -16 -184 -348 -229 -497 -30 -99 -52 -118 -103 -90 -63 33 -62 84 4 241
28 67 66 153 85 191 19 38 32 71 30 74 -3 2 -35 -10 -72 -27 -36 -17 -74 -31
-85 -31 -39 0 -64 76 -36 113 15 20 117 66 218 98 l76 24 93 152 c182 296 359
523 409 523 14 0 31 -15 51 -47z m1329 -4 c17 -28 31 -59 31 -71 0 -11 -20
-70 -44 -131 -24 -62 -54 -150 -66 -197 -11 -47 -23 -93 -26 -102 -5 -16 2
-18 51 -18 64 0 78 -16 54 -59 -11 -20 -29 -30 -74 -41 l-60 -15 -12 -60 c-7
-33 -19 -120 -28 -194 -17 -144 -24 -160 -76 -161 -67 -1 -85 101 -50 274 11
55 19 102 17 104 -2 2 -42 -8 -88 -22 l-85 -26 -61 -128 c-67 -140 -145 -329
-163 -395 -6 -23 -18 -50 -26 -59 -32 -36 -90 -14 -113 41 -16 39 5 104 99
311 39 85 71 156 71 157 0 2 -31 -13 -70 -32 -75 -38 -101 -43 -119 -22 -10
13 -16 51 -12 89 1 21 60 51 186 97 50 18 97 36 105 40 8 4 56 76 107 160 174
286 351 511 400 511 13 0 31 -18 52 -51z m589 -227 c20 -25 7 -73 -28 -104
-75 -68 -161 8 -99 86 38 48 98 56 127 18z m-1654 -48 c24 -23 19 -68 -10
-103 -22 -26 -33 -31 -70 -31 -33 0 -46 5 -54 19 -18 34 -11 62 24 97 38 38
83 45 110 18z m1889 -95 c14 -6 30 -22 35 -35 6 -13 25 -30 42 -39 41 -21 39
-40 -15 -142 -41 -78 -57 -133 -37 -133 10 0 62 56 91 98 12 17 31 32 42 32
62 0 -44 -172 -151 -243 -45 -31 -130 -15 -130 25 0 5 -21 -9 -46 -31 -84 -74
-161 -65 -188 22 -5 15 -17 7 -68 -47 -35 -36 -75 -68 -90 -71 -73 -18 -108
30 -88 121 6 27 46 122 88 211 74 156 78 163 114 174 31 10 41 9 63 -5 14 -9
25 -24 25 -34 0 -9 -31 -74 -69 -144 -73 -133 -88 -168 -74 -168 15 0 66 59
143 165 88 120 178 210 234 236 49 22 48 22 79 8z m-541 -129 c21 -26 18 -63
-9 -92 -23 -25 -50 -22 -69 7 -20 30 -47 32 -74 5 -29 -29 -25 -67 16 -126 30
-43 36 -61 36 -99 -2 -104 -75 -176 -185 -183 -53 -3 -67 0 -97 20 -42 28 -50
69 -24 123 18 38 34 44 55 19 17 -21 64 -44 89 -44 33 0 35 27 5 70 -64 93
-34 215 75 298 41 32 48 34 104 30 47 -4 63 -9 78 -28z"/>
<path d="M4162 3188 c-33 -51 -83 -131 -110 -178 -56 -95 -54 -101 27 -77 l45
13 42 139 c23 77 47 152 53 168 6 15 9 27 7 27 -2 0 -31 -42 -64 -92z"/>
<path d="M5500 3203 c-85 -132 -171 -276 -167 -279 2 -2 29 1 60 7 l57 12 21
71 c11 39 34 111 50 160 16 50 27 91 25 93 -1 2 -22 -27 -46 -64z"/>
<path d="M6439 2978 c-64 -66 -155 -235 -137 -254 21 -21 119 102 173 217 42
91 29 104 -36 37z"/>
</g>
</svg>
