<?xml version="1.0" standalone="no"?>
<!DOCTYPE svg PUBLIC "-//W3C//DTD SVG 20010904//EN"
 "http://www.w3.org/TR/2001/REC-SVG-20010904/DTD/svg10.dtd">
<svg version="1.0" xmlns="http://www.w3.org/2000/svg"
 width="662.000000pt" height="439.000000pt" viewBox="0 0 662.000000 439.000000"
 preserveAspectRatio="xMidYMid meet">

<g transform="translate(0.000000,439.000000) scale(0.100000,-0.100000)"
fill="#000000" stroke="none">
<path d="M5125 4310 c-779 -42 -787 -42 -876 -77 -87 -34 -165 -83 -229 -145
-25 -24 -654 -822 -1398 -1775 l-1352 -1731 -183 -178 c-101 -100 -222 -207
-271 -242 l-89 -62 2121 0 2121 0 10 53 c6 28 193 977 416 2107 223 1130 408
2061 410 2068 6 16 -53 15 -680 -18z m-290 -1294 c50 -8 116 -24 147 -35 102
-39 210 -159 256 -285 11 -28 38 -171 61 -318 l41 -266 -125 -639 c-70 -351
-129 -648 -132 -661 -12 -50 -160 -82 -408 -89 -145 -4 -193 -2 -249 11 -267
63 -375 253 -430 758 -42 379 -86 870 -86 955 1 201 82 371 219 458 75 46 272
102 421 118 82 9 201 6 285 -7z m-1130 -148 c3 -24 51 -479 106 -1013 93 -893
100 -976 90 -1049 -26 -190 -130 -311 -324 -376 -183 -61 -280 -75 -527 -75
-194 1 -239 4 -325 23 -131 28 -205 51 -205 62 0 11 130 292 140 304 5 5 44 0
92 -12 216 -54 369 -54 475 -2 99 49 133 109 125 218 l-4 63 -35 -40 c-73 -86
-253 -146 -418 -139 -110 5 -167 29 -241 103 -106 105 -133 204 -204 741 l-43
321 320 409 c176 225 328 411 337 412 10 2 40 -10 68 -27 27 -17 52 -31 55
-31 3 0 3 23 1 50 -5 46 -3 50 16 51 12 0 116 11 231 23 289 32 263 34 270
-16z"/>
<path d="M4532 2600 c-13 -6 -31 -29 -42 -54 l-20 -43 65 -629 c36 -346 70
-643 76 -661 16 -50 52 -73 114 -73 63 0 100 24 114 77 8 27 -2 152 -40 527
-82 809 -82 811 -126 845 -28 23 -98 28 -141 11z"/>
<path d="M4850 1103 c0 -10 7 -79 15 -153 8 -74 15 -141 15 -147 0 -7 11 -13
24 -13 49 0 53 6 45 73 -4 34 -5 64 -3 66 11 12 26 -22 31 -73 l6 -56 35 0 35
0 -6 73 c-5 57 -10 75 -26 86 -18 12 -19 15 -5 29 12 12 14 26 9 61 -10 66
-17 71 -101 71 -64 0 -74 -2 -74 -17z m106 -58 c7 -28 0 -55 -16 -55 -5 0 -10
18 -10 40 0 44 16 54 26 15z"/>
<path d="M4740 1103 l-26 -4 14 -152 c7 -84 15 -157 17 -163 2 -6 17 -9 34 -6
36 5 35 -3 20 165 -12 139 -16 168 -27 166 -4 -1 -18 -4 -32 -6z"/>
<path d="M4526 983 c-3 -60 -8 -134 -10 -165 l-4 -58 34 0 c31 0 34 3 34 30 0
23 4 30 20 30 15 0 20 -7 20 -25 0 -22 4 -25 35 -25 19 0 35 3 35 8 0 4 -16
76 -37 160 l-37 152 -42 0 -42 0 -6 -107z m76 -68 c3 -24 0 -35 -9 -35 -13 0
-19 51 -6 63 10 11 11 9 15 -28z"/>
<path d="M3007 2440 c-50 -40 -50 -55 3 -569 63 -606 55 -558 95 -598 28 -28
40 -33 79 -33 61 0 92 16 112 59 20 41 18 74 -41 636 -46 435 -50 462 -85 497
-24 24 -37 28 -83 28 -40 0 -61 -6 -80 -20z"/>
</g>
</svg>
