<?xml version="1.0" standalone="no"?>
<!DOCTYPE svg PUBLIC "-//W3C//DTD SVG 20010904//EN"
 "http://www.w3.org/TR/2001/REC-SVG-20010904/DTD/svg10.dtd">
<svg version="1.0" xmlns="http://www.w3.org/2000/svg"
 width="1200.000000pt" height="405.000000pt" viewBox="0 0 1200.000000 405.000000"
 preserveAspectRatio="xMidYMid meet">

<g transform="translate(0.000000,405.000000) scale(0.100000,-0.100000)"
fill="#000000" stroke="none">
<path d="M271 3738 l-220 -263 57 -6 c31 -4 119 -7 194 -8 l137 -1 32 40 32
40 99 0 c109 0 104 4 81 -57 -4 -10 39 -13 193 -13 l199 0 42 158 c24 86 56
205 72 265 l29 107 -363 0 -363 0 -221 -262z m568 165 c-6 -16 -28 -74 -50
-130 l-41 -103 -64 0 c-35 0 -64 2 -64 5 0 3 42 53 93 111 50 58 98 114 106
125 20 28 32 23 20 -8z"/>
<path d="M1467 3978 c-17 -27 -236 -427 -261 -475 l-17 -33 218 0 218 0 140
257 c77 141 142 260 143 265 2 4 -93 8 -212 8 -213 0 -216 0 -229 -22z"/>
<path d="M1936 3740 c-75 -143 -136 -263 -136 -265 0 -3 98 -4 217 -3 l217 3
46 78 c26 42 49 80 52 83 3 2 33 -34 67 -81 l62 -85 211 0 210 0 -67 75 c-37
42 -66 77 -64 79 2 2 29 11 60 20 62 17 81 37 139 139 39 69 61 138 53 167
-13 48 -31 50 -497 50 l-434 0 -136 -260z m608 114 c24 -9 20 -59 -7 -90 -19
-22 -34 -28 -80 -32 -70 -6 -77 6 -46 77 l21 51 48 0 c27 0 55 -3 64 -6z"/>
<path d="M3667 3903 c-51 -91 -198 -358 -226 -410 l-12 -23 218 0 218 0 140
256 c77 140 142 259 143 265 2 5 -81 9 -212 9 l-215 0 -54 -97z"/>
<path d="M4190 3745 c-74 -141 -137 -260 -138 -266 -3 -6 60 -8 174 -7 l178 3
55 93 c64 106 57 107 122 -20 l39 -78 218 0 217 0 140 256 c77 141 142 260
143 265 2 5 -75 9 -175 9 l-178 0 -50 -86 c-76 -130 -71 -129 -135 -13 l-55
99 -210 0 -210 0 -135 -255z"/>
<path d="M5372 3741 c-78 -142 -142 -262 -142 -265 0 -3 214 -6 475 -6 528 0
503 -3 567 68 42 47 129 192 187 311 43 89 43 104 -1 135 -20 14 -83 16 -483
16 l-461 0 -142 -259z m616 117 c19 -19 15 -37 -37 -144 -44 -92 -51 -102 -81
-107 -48 -10 -122 -8 -118 2 2 5 32 66 68 135 l65 126 46 0 c25 0 50 -5 57
-12z"/>
<path d="M6561 3741 c-77 -143 -141 -262 -141 -265 0 -4 97 -5 216 -4 l215 3
107 195 c59 107 124 225 145 263 l37 67 -219 0 -219 0 -141 -259z"/>
<path d="M7347 3938 c-30 -35 -130 -153 -222 -263 l-169 -200 65 -6 c35 -4
122 -7 193 -8 l129 -1 34 40 35 40 94 0 c52 0 94 -4 94 -9 0 -5 -4 -21 -10
-35 l-10 -26 200 0 c180 0 199 2 204 18 15 48 136 498 136 504 0 5 -162 8
-359 8 l-359 0 -55 -62z m356 -142 l-47 -126 -64 0 c-35 0 -62 4 -60 9 6 17
210 252 215 248 2 -3 -18 -61 -44 -131z"/>
<path d="M11845 3057 c-28 -19 -120 -76 -205 -127 -187 -112 -185 -111 -171
-139 12 -21 12 -21 59 11 68 46 361 269 368 279 8 14 2 11 -51 -24z"/>
<path d="M805 3049 c-300 -19 -532 -171 -662 -434 -72 -144 -96 -265 -97 -485
-1 -222 25 -339 111 -497 100 -187 267 -312 491 -369 83 -21 120 -25 259 -25
225 1 366 32 499 112 73 44 182 160 228 242 38 68 90 187 84 193 -5 4 -253 34
-285 34 -18 0 -29 -13 -52 -57 -71 -141 -155 -224 -269 -266 -48 -18 -79 -21
-197 -21 -119 0 -149 3 -198 21 -74 28 -180 103 -219 156 -63 86 -110 218
-127 353 l-7 64 680 2 681 3 3 112 c6 245 -75 473 -223 627 -173 180 -394 254
-700 235z m217 -240 c134 -28 260 -120 316 -231 32 -63 72 -200 72 -245 l0
-23 -515 0 -515 0 0 28 c0 46 28 143 60 207 87 173 250 274 442 275 48 0 111
-5 140 -11z"/>
<path d="M7190 3049 c-186 -13 -333 -72 -465 -186 -198 -171 -287 -396 -288
-728 -1 -305 66 -495 233 -665 157 -161 347 -232 620 -232 302 0 479 61 629
217 64 67 88 102 129 186 76 156 78 144 -25 157 -49 6 -117 14 -153 18 l-66 6
-28 -53 c-122 -227 -237 -299 -474 -299 -305 0 -508 201 -539 536 l-6 64 683
0 682 0 -5 153 c-6 185 -26 269 -98 414 -41 82 -66 118 -128 181 -177 180
-394 251 -701 231z m245 -244 c132 -35 245 -124 300 -239 34 -72 65 -178 65
-228 l0 -28 -515 0 -515 0 0 28 c0 49 29 143 68 216 65 124 177 216 303 250
72 20 220 20 294 1z"/>
<path d="M4243 3025 c-100 -27 -195 -86 -290 -179 l-63 -60 0 112 0 112 -155
0 -155 0 0 -1210 0 -1210 160 0 160 0 0 411 0 411 55 -50 c205 -188 601 -201
868 -30 175 113 286 256 354 453 77 227 70 537 -18 766 -90 234 -324 426 -575
475 -95 18 -272 17 -341 -1z m302 -310 c178 -47 317 -206 361 -415 19 -91 14
-274 -10 -365 -68 -252 -253 -405 -491 -405 -193 0 -358 102 -438 272 -41 86
-58 166 -64 293 -9 212 36 344 162 470 139 140 311 194 480 150z"/>
<path d="M8904 3030 c-176 -32 -339 -120 -405 -219 -148 -222 -101 -497 110
-632 79 -51 186 -88 443 -153 273 -70 391 -107 419 -132 16 -15 28 -11 161 45
79 34 150 65 158 71 25 16 -75 102 -172 148 -112 53 -173 73 -453 147 -280 73
-344 96 -390 137 -58 50 -78 92 -73 149 14 144 187 230 433 216 183 -10 322
-101 358 -234 10 -40 13 -43 47 -43 51 1 250 27 257 34 9 9 -24 122 -55 185
-43 88 -110 154 -205 200 -134 66 -215 83 -412 86 -93 2 -193 0 -221 -5z"/>
<path d="M10620 3026 c-195 -41 -351 -140 -413 -262 -91 -180 -74 -357 51
-513 19 -24 20 -24 58 -8 22 8 97 43 168 77 l129 62 -54 30 c-71 38 -111 94
-117 162 -3 44 1 58 27 98 40 63 90 94 191 119 69 18 103 21 194 17 127 -6
200 -28 280 -86 l49 -36 124 63 c67 35 123 69 123 76 0 23 -92 95 -165 130
-120 58 -216 77 -410 81 -118 2 -190 -1 -235 -10z"/>
<path d="M1803 2938 c158 -222 535 -756 540 -765 8 -12 15 -1 -360 -544 -150
-218 -273 -400 -273 -403 0 -4 82 -5 181 -4 l182 3 233 340 c129 186 240 346
248 353 12 13 23 3 74 -67 33 -44 143 -204 244 -355 l183 -275 183 -1 c144 0
182 3 176 13 -8 13 -172 257 -451 669 -109 161 -171 263 -167 270 4 7 133 194
286 416 153 221 278 404 278 407 0 3 -82 4 -182 3 l-182 -3 -66 -96 c-203
-297 -364 -519 -371 -512 -4 4 -51 73 -104 152 -53 80 -146 216 -207 303
l-111 158 -189 0 -189 0 44 -62z"/>
<path d="M5440 2110 l0 -880 154 0 155 0 3 558 c5 608 6 620 65 722 102 174
266 242 461 191 45 -12 84 -21 86 -21 3 0 10 17 16 38 5 20 21 72 34 115 l25
79 -62 29 c-187 87 -403 52 -551 -91 -34 -33 -66 -60 -69 -60 -4 0 -7 45 -7
100 l0 100 -155 0 -155 0 0 -880z"/>
<path d="M11355 2671 c-98 -68 -110 -80 -113 -109 -3 -31 -2 -32 35 -32 51 1
253 26 260 33 15 15 -46 189 -65 186 -4 0 -56 -35 -117 -78z"/>
<path d="M10740 2292 c-36 -20 -113 -64 -172 -97 -60 -33 -108 -62 -108 -66 0
-8 165 -58 345 -104 309 -80 394 -112 439 -165 33 -39 60 -131 52 -174 -9 -47
-60 -120 -109 -156 -95 -70 -260 -102 -389 -75 -122 25 -264 90 -310 142 -21
23 -88 166 -88 187 0 8 -4 17 -9 21 -9 5 -259 -29 -288 -40 -25 -9 41 -173
109 -273 49 -71 134 -150 197 -181 116 -59 195 -74 420 -79 183 -3 213 -2 298
18 254 59 430 215 474 423 19 85 6 206 -29 281 -75 160 -228 242 -636 341 -60
15 -114 29 -120 31 -6 2 -40 -13 -76 -34z"/>
<path d="M9704 1763 c-150 -66 -152 -67 -164 -106 -24 -80 -137 -168 -255
-197 -27 -6 -105 -12 -173 -11 l-123 1 -142 -54 c-78 -30 -155 -60 -172 -66
l-30 -12 45 -20 c25 -11 92 -31 149 -45 97 -23 117 -24 315 -21 208 4 212 4
305 36 263 91 411 269 411 494 0 37 -3 68 -7 68 -5 -1 -76 -31 -159 -67z"/>
<path d="M8488 1787 c-105 -17 -128 -23 -128 -37 0 -30 39 -131 76 -197 31
-55 38 -63 57 -57 12 4 75 25 141 48 102 36 116 44 105 57 -24 25 -57 92 -74
152 -12 41 -21 57 -33 56 -9 -1 -74 -11 -144 -22z"/>
<path d="M8400 1444 c-72 -31 -874 -296 -1119 -369 -1193 -356 -2449 -615
-3781 -779 -618 -77 -868 -96 -1272 -96 -692 0 -1215 77 -1621 239 -177 71
-310 155 -439 279 -87 82 -90 84 -58 37 53 -80 187 -205 295 -277 645 -429
1747 -531 3470 -322 1425 173 2857 500 4130 942 243 85 357 126 497 181 l107
42 -72 69 c-40 38 -79 69 -87 69 -8 0 -31 -7 -50 -15z"/>
</g>
</svg>
