<?xml version="1.0" standalone="no"?>
<!DOCTYPE svg PUBLIC "-//W3C//DTD SVG 20010904//EN"
 "http://www.w3.org/TR/2001/REC-SVG-20010904/DTD/svg10.dtd">
<svg version="1.0" xmlns="http://www.w3.org/2000/svg"
 width="400.000000pt" height="180.000000pt" viewBox="0 0 400.000000 180.000000"
 preserveAspectRatio="xMidYMid meet">

<g transform="translate(0.000000,180.000000) scale(0.100000,-0.100000)"
fill="#000000" stroke="none">
<path d="M2200 1014 c-14 -35 -15 -34 30 -34 28 0 40 4 40 14 0 8 3 21 6 30 5
13 -1 16 -30 16 -30 0 -38 -5 -46 -26z"/>
<path d="M2901 814 c-64 -223 -78 -254 -118 -254 -19 0 -43 29 -36 46 5 12 -2
15 -33 12 -36 -3 -39 -6 -42 -35 -5 -48 25 -73 89 -73 59 0 111 22 133 54 8
13 42 119 77 237 34 118 64 220 66 227 4 8 -7 12 -33 12 l-39 0 -64 -226z"/>
<path d="M3391 990 c-10 -38 -17 -50 -32 -50 -12 0 -23 -10 -29 -26 -13 -34
-13 -34 11 -34 15 0 19 -5 15 -17 -44 -151 -49 -176 -39 -191 13 -22 92 -29
104 -10 16 24 10 48 -11 48 -25 0 -25 -4 2 91 19 70 24 79 45 79 16 0 27 8 33
26 13 34 13 34 -15 34 l-24 0 14 48 c8 26 15 48 15 50 0 1 -17 2 -38 2 -37 0
-38 -1 -51 -50z"/>
<path d="M1666 950 c-67 -21 -105 -93 -69 -132 10 -11 35 -29 55 -39 49 -25
56 -39 28 -61 -29 -23 -35 -23 -62 4 -21 21 -57 26 -80 11 -12 -7 20 -61 44
-74 29 -15 105 -5 137 18 70 52 66 108 -9 149 -39 21 -50 33 -48 48 4 27 43
33 68 11 12 -11 26 -14 44 -9 37 9 40 19 14 49 -26 29 -76 39 -122 25z"/>
<path d="M2413 950 c-73 -16 -98 -48 -128 -162 -21 -81 -15 -111 25 -128 72
-30 160 2 196 73 l15 27 -38 0 c-30 0 -40 -5 -48 -22 -11 -26 -73 -38 -85 -18
-13 20 31 150 56 167 29 18 64 9 64 -18 0 -15 7 -19 35 -19 39 0 51 15 41 55
-10 39 -70 59 -133 45z"/>
<path d="M1861 883 c-34 -114 -101 -358 -101 -365 0 -5 15 -8 34 -8 33 0 35 2
50 54 9 30 16 56 16 59 0 3 4 18 10 32 9 25 11 25 32 11 43 -30 103 -14 132
35 22 38 56 155 56 194 0 17 -5 36 -12 43 -17 17 -80 15 -104 -3 -25 -19 -38
-19 -30 0 4 12 -3 15 -29 15 -34 0 -35 -1 -54 -67z m147 10 c12 -20 -22 -149
-45 -175 -19 -21 -61 -24 -68 -5 -3 6 5 48 18 92 18 62 28 83 47 92 33 17 37
16 48 -4z"/>
<path d="M2176 933 c-17 -57 -76 -273 -76 -278 0 -3 16 -5 36 -3 l36 3 39 135
c21 74 38 141 39 148 0 20 -68 15 -74 -5z"/>
<path d="M2653 930 c-17 -10 -37 -29 -43 -41 -16 -30 -50 -149 -50 -176 0 -50
93 -80 165 -53 26 10 75 56 75 71 0 17 -62 9 -87 -11 -50 -39 -91 -17 -72 39
l11 31 83 0 84 0 12 55 c12 53 11 56 -11 80 -20 21 -33 25 -79 25 -38 0 -66
-6 -88 -20z m105 -62 c3 -27 2 -28 -42 -28 -33 0 -46 4 -46 14 0 24 31 47 59
44 20 -2 27 -9 29 -30z"/>
<path d="M3113 930 c-42 -25 -57 -51 -79 -135 -20 -82 -15 -117 21 -133 65
-30 154 -4 193 56 14 21 13 22 -22 22 -23 0 -43 -7 -57 -21 -39 -39 -90 -8
-70 44 10 26 12 27 94 27 l84 0 10 47 c13 53 4 86 -26 102 -33 18 -113 13
-148 -9z m102 -60 c0 -23 -4 -25 -47 -28 -52 -3 -56 2 -32 36 12 17 24 22 47
20 27 -2 32 -7 32 -28z"/>
</g>
</svg>
