<?xml version="1.0" standalone="no"?>
<!DOCTYPE svg PUBLIC "-//W3C//DTD SVG 20010904//EN"
 "http://www.w3.org/TR/2001/REC-SVG-20010904/DTD/svg10.dtd">
<svg version="1.0" xmlns="http://www.w3.org/2000/svg"
 width="200.000000pt" height="200.000000pt" viewBox="0 0 200.000000 200.000000"
 preserveAspectRatio="xMidYMid meet">

<g transform="translate(0.000000,200.000000) scale(0.100000,-0.100000)"
fill="#000000" stroke="none">
<path d="M933 733 c-9 -3 -13 -28 -13 -79 0 -67 2 -75 25 -90 17 -11 33 -14
52 -8 l28 8 -35 5 c-34 6 -35 7 -38 59 l-3 52 35 0 c20 0 36 5 36 10 0 6 -15
10 -34 10 -26 0 -35 5 -38 18 -2 11 -9 17 -15 15z"/>
<path d="M760 697 c-15 -7 -26 -23 -28 -39 -3 -24 1 -27 35 -33 78 -13 84 -15
81 -33 -3 -14 -15 -17 -68 -16 l-65 2 35 -15 c56 -24 130 -4 130 36 0 27 -21
41 -59 41 -46 0 -66 13 -57 35 5 15 15 17 64 12 33 -3 51 -2 42 3 -30 17 -85
20 -110 7z"/>
<path d="M446 668 c36 -70 65 -108 82 -108 12 0 31 23 55 67 21 36 35 68 32
71 -7 7 -29 -23 -55 -75 -12 -24 -23 -43 -25 -43 -2 0 -18 27 -37 60 -21 39
-39 60 -51 60 -17 0 -17 -2 -1 -32z"/>
<path d="M650 630 c0 -56 3 -70 15 -70 12 0 15 14 15 70 0 56 -3 70 -15 70
-12 0 -15 -14 -15 -70z"/>
<path d="M1073 693 c-29 -11 -10 -20 22 -10 40 12 85 -3 85 -28 0 -11 -12 -15
-53 -15 -58 0 -77 -12 -77 -47 0 -32 37 -48 87 -38 21 5 46 7 56 6 25 -3 25
99 -1 122 -18 16 -90 22 -119 10z m107 -87 c0 -26 -16 -36 -61 -36 -31 0 -45
19 -35 45 4 10 20 15 51 15 41 0 45 -2 45 -24z"/>
<path d="M1250 630 c0 -56 3 -70 15 -70 8 0 15 9 15 19 0 32 19 34 60 7 49
-32 90 -36 47 -4 l-28 21 23 11 c13 6 24 22 26 34 6 40 -14 52 -89 52 l-69 0
0 -70z m118 48 c17 -17 15 -45 -4 -52 -9 -3 -31 -6 -50 -6 -31 0 -34 3 -34 28
0 16 3 32 7 35 11 12 68 8 81 -5z"/>
<path d="M1464 684 c-19 -15 -19 -16 1 -9 65 21 115 12 115 -20 0 -11 -13 -15
-54 -15 -81 0 -114 -41 -61 -76 19 -12 35 -15 63 -9 20 4 47 6 60 6 20 -1 22
4 22 53 0 39 -5 57 -18 69 -24 22 -102 22 -128 1z m114 -80 c2 -15 -4 -23 -20
-28 -59 -15 -95 2 -77 36 15 29 93 22 97 -8z"/>
</g>
</svg>
